<?xml version="1.0" encoding="UTF-8"?>
<svg version="1.1" xmlns="http://www.w3.org/2000/svg" width="1080" height="1080">
<path d="M0 0 C8.37408089 4.93856052 13.60264698 15.31816321 18.3125 23.5 C19.15977661 24.95164551 19.15977661 24.95164551 20.02416992 26.43261719 C21.68846284 29.28515262 23.34506042 32.14203078 25 35 C31.37856659 45.97684669 37.93970785 56.82766456 44.61108398 67.62939453 C50.10721931 76.53193852 55.54545329 85.46841879 60.96102905 94.42016602 C65.57191571 102.04058181 70.20498856 109.64455819 75.04638672 117.12158203 C79.98062376 124.85931172 81.97366203 130.88644494 81 140 C79.63478673 145.50407004 77.84501403 150.82891058 76 156.1875 C75.51672353 157.63035595 75.03494123 159.07371325 74.5546875 160.51757812 C73.3869416 164.01766046 72.19919037 167.51054738 71 171 C72.19729233 170.98747192 73.39458466 170.97494385 74.62815857 170.96203613 C86.02537144 170.84295067 97.42259796 170.72525466 108.81983852 170.60884857 C114.6763677 170.54898997 120.53289138 170.48867624 126.3894043 170.42724609 C132.06288099 170.36775387 137.73636975 170.3095567 143.40986824 170.25218201 C145.55230223 170.230303 147.69473186 170.20799144 149.8371563 170.18519592 C155.86071559 170.12126552 161.88421904 170.06785115 167.90797043 170.02572632 C171.19157314 169.99840607 174.47486958 169.95698296 177.7583313 169.91625977 C179.99130801 169.89738997 182.22428939 169.87906444 184.45727539 169.86132812 C185.4803929 169.8453936 186.50351042 169.82945908 187.55763149 169.81304169 C196.83073933 169.76259954 204.31570085 170.35472556 211.20703125 176.9296875 C216.05217719 182.52430045 219.10486069 188.69118782 219.14425182 196.1359911 C219.15431359 197.3671837 219.15431359 197.3671837 219.16457862 198.62324888 C219.16692096 199.51962951 219.16926331 200.41601015 219.17167664 201.33955383 C219.1812003 202.77438269 219.1812003 202.77438269 219.19091636 204.23819798 C219.21099961 207.45216583 219.22402692 210.66612334 219.23706055 213.88012695 C219.24991227 216.18147501 219.26316665 218.48282084 219.27679443 220.78416443 C219.31244081 227.0450474 219.34165991 233.30594468 219.36918616 239.56686807 C219.38668789 243.48137962 219.40556493 247.39588203 219.42493629 251.31038475 C219.48903835 264.27040677 219.54896973 277.23043706 219.60361841 290.19050226 C219.60656545 290.88923075 219.60951248 291.58795925 219.61254883 292.30786133 C219.61549856 293.00744975 219.6184483 293.70703818 219.62148742 294.42782625 C219.66944678 305.74037657 219.72753361 317.05284911 219.79024651 328.36532638 C219.85460607 339.99671277 219.91099141 351.62811432 219.95981437 363.2595765 C219.98733313 369.78311198 220.01803882 376.30659336 220.05682945 382.8300724 C220.09309605 388.97530672 220.11933595 395.12050577 220.1381073 401.26581764 C220.14663012 403.51227956 220.15862598 405.75873162 220.17449379 408.00515366 C220.41882164 443.51081473 220.41882164 443.51081473 210.40234375 454.80078125 C202.40956191 462.41565378 192.90021521 463.58758194 182.29833984 463.45410156 C180.45272461 463.45497772 180.45272461 463.45497772 178.56982422 463.45587158 C175.22715041 463.45357774 171.88548974 463.43364999 168.54299498 463.40557575 C165.038348 463.38040973 161.53368458 463.37820822 158.02896118 463.37347412 C151.40638025 463.36108863 144.78406643 463.3283278 138.16160262 463.28807616 C130.61620752 463.2432197 123.07079904 463.22133671 115.5253036 463.20129442 C100.01671489 463.15959056 84.50839202 463.08932578 69 463 C69.61681847 467.5219887 70.24490408 472.04234383 70.875 476.5625 C71.13603516 478.47772461 71.13603516 478.47772461 71.40234375 480.43164062 C71.57636719 481.67236328 71.75039063 482.91308594 71.9296875 484.19140625 C72.08679199 485.32779541 72.24389648 486.46418457 72.40576172 487.63500977 C73.03638181 491.20601912 73.94776776 494.53302966 75 498 C75.60996826 497.98952637 76.21993652 497.97905273 76.84838867 497.96826172 C79.62805007 497.92653379 82.40764539 497.90062078 85.1875 497.875 C86.14720703 497.85824219 87.10691406 497.84148437 88.09570312 497.82421875 C89.02705078 497.81777344 89.95839844 497.81132813 90.91796875 497.8046875 C91.77156982 497.79421387 92.6251709 497.78374023 93.50463867 497.77294922 C96.59553876 498.05418756 99.73939021 498.73939021 102 501 C102.36090226 508.45864662 102.36090226 508.45864662 100 512 C96.30544472 513.23151843 92.88977777 513.14809235 89.04214478 513.14717102 C88.22231531 513.15084771 87.40248584 513.1545244 86.55781305 513.1583125 C83.8010683 513.1693565 81.04436123 513.17319436 78.28759766 513.17700195 C76.31499613 513.18326594 74.34239579 513.18991268 72.36979675 513.19691467 C67.00411143 513.21432746 61.63843502 513.22487668 56.27272844 513.2331202 C52.92230989 513.23826858 49.57189411 513.24434431 46.22147751 513.25063133 C35.74405413 513.26968211 25.2666378 513.28391486 14.78920043 513.2922433 C2.68444954 513.30202366 -9.42011887 513.32836454 -21.52480543 513.36874419 C-30.87518674 513.39886861 -40.22551563 513.41370858 -49.57594454 513.41702431 C-55.16360034 513.41937851 -60.75106115 513.42838731 -66.33866501 513.45348549 C-71.59342261 513.47670767 -76.84785605 513.48102304 -82.1026516 513.47072411 C-84.03240853 513.47022725 -85.96218112 513.47659164 -87.89188957 513.49028015 C-90.52437716 513.50791087 -93.15569013 513.50093688 -95.78817749 513.48774719 C-96.93638255 513.50420106 -96.93638255 513.50420106 -98.10778368 513.52098733 C-101.73016659 513.47710099 -103.85860885 513.08571825 -106.98198891 511.19217205 C-109 509 -109 509 -109.5 505.4375 C-108.97165322 501.80511591 -108.78833943 501.13041664 -106 499 C-98.40144619 497.04438006 -89.77389428 497.89918581 -82 498 C-81.36849098 494.98040589 -80.74478575 491.95950497 -80.125 488.9375 C-79.95097656 488.10927734 -79.77695312 487.28105469 -79.59765625 486.42773438 C-78.49584266 481.0206862 -77.64258669 475.60658862 -76.93310547 470.13500977 C-76.84254379 469.44592781 -76.75198212 468.75684586 -76.65867615 468.04688263 C-76.4377966 466.36476133 -76.21871216 464.68240448 -76 463 C-76.64622787 463.00368717 -77.29245573 463.00737434 -77.95826626 463.01117325 C-93.70878469 463.09965036 -109.45921625 463.16577071 -125.20992184 463.20724869 C-132.82696923 463.22784216 -140.44385036 463.25590086 -148.06079102 463.30175781 C-154.7025346 463.34172452 -161.34415773 463.36745617 -167.98601824 463.37635398 C-171.50034636 463.38155221 -175.01432998 463.39370177 -178.52854729 463.42292023 C-182.4591182 463.45533295 -186.38935726 463.45595311 -190.32006836 463.45410156 C-191.47525467 463.46848267 -192.63044098 463.48286377 -193.82063293 463.49768066 C-203.69303836 463.44746188 -210.93215576 460.78949478 -218.20703125 454.06640625 C-223.13793914 448.38350805 -226.1185914 441.26816524 -226.13142776 433.74351406 C-226.13526891 432.89586843 -226.13911005 432.0482228 -226.1430676 431.17489094 C-226.14220112 430.24854518 -226.14133463 429.32219943 -226.14044189 428.36778259 C-226.14341302 427.37982289 -226.14638414 426.39186319 -226.1494453 425.37396532 C-226.15813675 422.05390782 -226.15964094 418.73388635 -226.16113281 415.41381836 C-226.16576075 413.03701704 -226.17078538 410.66021646 -226.17617798 408.28341675 C-226.18930827 401.81824649 -226.19578527 395.35308314 -226.20018864 388.88790202 C-226.20295321 384.84812905 -226.20719104 380.80835847 -226.21169281 376.76858711 C-226.22388613 365.57626337 -226.23418425 354.38394153 -226.2375679 343.19161129 C-226.23778747 342.47538942 -226.23800703 341.75916756 -226.23823325 341.021242 C-226.23845153 340.30333209 -226.23866981 339.58542218 -226.2388947 338.84575742 C-226.23933816 337.3910681 -226.23978473 335.93637878 -226.24023438 334.48168945 C-226.2404558 333.76011748 -226.24067723 333.03854552 -226.24090537 332.29510773 C-226.24484967 320.61451779 -226.26229215 308.93399038 -226.2855939 297.25342458 C-226.3093429 285.25138064 -226.32177142 273.24936801 -226.32293582 261.24730021 C-226.32385076 254.51262511 -226.32955709 247.77803142 -226.34775543 241.04337883 C-226.36425457 234.70439301 -226.36638253 228.3655614 -226.35761642 222.02656174 C-226.35684698 219.7042544 -226.36117646 217.3819387 -226.37107468 215.05965233 C-226.38382873 211.87995371 -226.37789825 208.7007984 -226.36749268 205.52110291 C-226.37554908 204.6103722 -226.38360548 203.6996415 -226.39190602 202.7613129 C-226.3302264 194.65666385 -225.10676696 185.65326343 -219.9375 179.125 C-219.43089844 178.44695312 -218.92429687 177.76890625 -218.40234375 177.0703125 C-210.63031321 170.37246504 -203.00179264 169.29115721 -193.02294922 169.52416992 C-191.13344292 169.53770508 -191.13344292 169.53770508 -189.20576477 169.55151367 C-185.78235893 169.5766064 -182.36011407 169.63279714 -178.9372077 169.6949594 C-175.34863898 169.75471393 -171.75981881 169.78533713 -168.17092896 169.81916809 C-161.38874465 169.88746781 -154.60718083 169.98162737 -147.82545483 170.08528739 C-140.09886308 170.20211505 -132.37202438 170.289797 -124.64503074 170.37513959 C-108.76286153 170.55120138 -92.88139141 170.76351127 -77 171 C-77.44653931 169.70751343 -77.44653931 169.70751343 -77.90209961 168.38891602 C-79.01470776 165.15407464 -80.11882442 161.91657946 -81.2175293 158.67700195 C-81.69240865 157.28231559 -82.17052966 155.88872822 -82.65209961 154.49633789 C-89.65967572 134.21584503 -89.65967572 134.21584503 -85.27490234 124.48730469 C-83.17170173 120.38400943 -80.80590826 116.50110595 -78.3125 112.625 C-77.15229377 110.78600856 -75.99351616 108.94611528 -74.8359375 107.10546875 C-74.2181543 106.12626465 -73.60037109 105.14706055 -72.96386719 104.13818359 C-69.39773255 98.43963876 -65.92047534 92.68707178 -62.4375 86.9375 C-61.70674435 85.73288673 -60.97595019 84.52829681 -60.24511719 83.32373047 C-55.50101648 75.49996663 -50.79345771 67.65468742 -46.09863281 59.80126953 C-42.80256947 54.30140333 -39.43043828 48.85497698 -36.00048828 43.43774414 C-33.38127371 39.27796742 -30.85156651 35.07317745 -28.359375 30.8359375 C-27.71202393 29.73983154 -27.06467285 28.64372559 -26.39770508 27.5144043 C-25.12928603 25.36161487 -23.86819917 23.20448129 -22.6159668 21.04223633 C-9.63693696 -0.94479774 -9.63693696 -0.94479774 0 0 Z M-14 39 C-14 42 -14 42 -14 42 Z M5 36 C4.76758114 45.23177192 4.5902641 54.46252681 4.48187828 63.69659328 C4.4298378 67.98522711 4.35934794 72.27184987 4.24560547 76.55932617 C4.13638135 80.70274939 4.07704511 84.84424793 4.05122757 88.98900032 C4.03284839 90.56441607 3.99695329 92.1397345 3.94269943 93.71432304 C3.49245622 102.82581003 3.49245622 102.82581003 7.20050049 110.87210083 C9.82093597 113.27515681 9.82093597 113.27515681 12.59048462 115.17640686 C16.98837107 118.50485856 18.55735294 122.95354671 19.33203125 128.28515625 C19.66435705 135.46093193 17.48912319 141.44203796 13 147 C13 147.66 13 148.32 13 149 C12.41605469 149.28617187 11.83210938 149.57234375 11.23046875 149.8671875 C9.85902045 150.56371991 8.50247519 151.29190963 7.17578125 152.0703125 C2.0864621 154.95105919 -2.18387589 155.98802809 -8 155 C-14.31195006 153.04987283 -18.2358981 149.30023072 -22 144 C-22.61875 143.13375 -23.2375 142.2675 -23.875 141.375 C-26.05919554 134.82241339 -26.32126766 127.0449513 -23.5 120.625 C-21.29756438 116.89112169 -18.24971284 114.24784857 -14.90234375 111.54296875 C-14.27457031 111.03378906 -13.64679688 110.52460938 -13 110 C-12.47344315 109.58804886 -11.94688629 109.17609772 -11.40437317 108.75166321 C-9.42684328 106.2851063 -9.62572175 104.56789255 -9.62768555 101.43041992 C-9.62145676 100.28880905 -9.61522797 99.14719818 -9.60881042 97.97099304 C-9.61802017 96.73662003 -9.62722992 95.50224701 -9.63671875 94.23046875 C-9.63622025 92.96157303 -9.63572174 91.69267731 -9.63520813 90.3853302 C-9.63755124 87.69757935 -9.64571928 85.01061272 -9.66381836 82.32299805 C-9.68643713 78.88991457 -9.68706201 75.457272 -9.68030071 72.02413464 C-9.67613924 68.73871323 -9.68814883 65.45336889 -9.69921875 62.16796875 C-9.69830734 60.93966843 -9.69739594 59.7113681 -9.69645691 58.44584656 C-9.71075493 56.71924553 -9.71075493 56.71924553 -9.7253418 54.95776367 C-9.72994919 53.94977219 -9.73455658 52.9417807 -9.73930359 51.90324402 C-10.0308294 48.6566686 -10.74921941 46.00722791 -12 43 C-14.03243548 42.03122943 -14.03243548 42.03122943 -16 42 C-16.32685791 42.49290527 -16.65371582 42.98581055 -16.99047852 43.49365234 C-18.51319083 45.78829707 -20.03783968 48.08164919 -21.5625 50.375 C-22.07619141 51.14972656 -22.58988281 51.92445313 -23.11914062 52.72265625 C-25.84566062 56.8209037 -28.61176498 60.88159101 -31.45703125 64.8984375 C-35.20541163 70.23197446 -38.68438842 75.71428785 -42.125 81.25 C-42.77170654 82.28705078 -43.41841309 83.32410156 -44.0847168 84.39257812 C-48.97759282 92.27285369 -53.74614453 100.22130008 -58.40527344 108.24194336 C-60.85469825 112.44484652 -63.34514123 116.57993088 -66.06640625 120.61328125 C-66.7792981 121.68449219 -66.7792981 121.68449219 -67.5065918 122.77734375 C-68.38195289 124.07921888 -69.276397 125.36858894 -70.19458008 126.640625 C-72.81045631 130.55327435 -73.49178445 133.58222052 -72.69873047 138.22045898 C-71.04306719 144.80666669 -68.82628167 151.20631267 -66.625 157.625 C-66.08614985 159.21694645 -65.54782683 160.80907142 -65.01000977 162.40136719 C-58.92646117 180.35248916 -52.67797691 198.26091082 -46 216 C-26.92671343 216.99497958 -7.9649259 216.97601296 11.125 216.5625 C13.84892929 216.50823164 16.57290053 216.45624122 19.296875 216.40429688 C25.86475877 216.27736067 32.43242874 216.14214871 39 216 C44.67228798 200.66891859 50.3082396 185.32482853 55.91400146 169.96929932 C56.88878563 167.30407845 57.86818453 164.64062803 58.85009766 161.97802734 C60.31835129 157.99318805 61.75635403 153.9983146 63.1875 150 C63.60241699 148.88407471 64.01733398 147.76814941 64.44482422 146.6184082 C67.07776647 139.14162489 68.02875594 133.35384702 64.609375 126.015625 C63.99578125 125.10296875 63.3821875 124.1903125 62.75 123.25 C62.01722153 122.12826176 61.28552938 121.00581344 60.5546875 119.8828125 C59.94512207 118.96290527 59.94512207 118.96290527 59.32324219 118.02441406 C56.76265184 114.10699428 54.33101124 110.10845847 51.875 106.125 C51.32295898 105.23538574 50.77091797 104.34577148 50.20214844 103.42919922 C47.27276162 98.70554207 44.37011495 93.96776262 41.5078125 89.203125 C34.49824643 77.5455723 27.19827931 66.19661935 19.41601562 55.04052734 C17.36881818 52.09044523 15.36852168 49.11164471 13.375 46.125 C12.48941406 44.79855469 12.48941406 44.79855469 11.5859375 43.4453125 C10.47096507 41.72616782 9.41839931 39.96572488 8.4140625 38.1796875 C7.71410156 37.10074219 7.71410156 37.10074219 7 36 C6.34 36 5.68 36 5 36 Z M-9.375 124.6875 C-11.25546795 127.36355054 -11.9237791 128.72250127 -12 132 C-10.57708864 136.86255628 -10.57708864 136.86255628 -7 140 C-2.66672826 140.49055907 -0.67999656 140.47744439 2.9375 137.9375 C5.23534372 135.1039354 5.23534372 135.1039354 5.625 131.5 C4.82883761 127.04149064 3.69186542 125.59216083 0 123 C-4.03211364 122.36335048 -6.01737304 122.30181769 -9.375 124.6875 Z M-60 235 C-60.81675793 237.97266651 -60.81675793 237.97266651 -60.5859375 241.17578125 C-60.57095215 242.21903564 -60.5559668 243.26229004 -60.54052734 244.3371582 C-60.48590332 245.649021 -60.4312793 246.96088379 -60.375 248.3125 C-60.30603271 250.57570276 -60.23927972 252.83897369 -60.17431641 255.10229492 C-60.1414151 256.21545578 -60.10851379 257.32861664 -60.07461548 258.47550964 C-60.04999237 259.30859146 -60.02536926 260.14167328 -60 261 C-38.08958353 261.08592542 -16.18364598 260.87479814 5.72509766 260.62768555 C10.70928352 260.57175096 15.69351276 260.52191874 20.67777443 260.47328281 C24.54149235 260.43451657 28.40515275 260.39140609 32.26881027 260.34705925 C34.11008342 260.32668546 35.95137562 260.30796428 37.79268265 260.29092598 C40.33533545 260.26700294 42.87784334 260.23695992 45.42041016 260.20532227 C46.17856018 260.1995668 46.93671021 260.19381134 47.71783447 260.18788147 C51.14880098 260.44300949 51.14880098 260.44300949 54 259 C54.3362655 255.44707834 54.32511497 251.87927952 54.375 248.3125 C54.41238281 247.31798828 54.44976563 246.32347656 54.48828125 245.29882812 C54.59548588 238.85704389 54.59548588 238.85704389 51.6015625 233.35546875 C48.43889843 230.49197561 47.0883669 229.87734936 42.96551514 229.84609985 C41.69965324 229.83319916 41.69965324 229.83319916 40.40821838 229.82003784 C39.48041061 229.81577789 38.55260284 229.81151794 37.59667969 229.80712891 C36.62091476 229.79895142 35.64514984 229.79077393 34.63981628 229.78234863 C31.40050882 229.75747231 28.16124525 229.74097256 24.921875 229.7265625 C23.26442638 229.71857698 23.26442638 229.71857698 21.57349396 229.71043015 C15.72462151 229.68368841 9.87577048 229.66431706 4.02685547 229.64990234 C-2.01719412 229.63325515 -8.06069838 229.58847913 -14.10454178 229.5375309 C-18.74911125 229.50388735 -23.39355086 229.49232801 -28.0382309 229.48667526 C-30.26618363 229.47995447 -32.49412758 229.46471105 -34.72196198 229.44078445 C-37.84146134 229.40919415 -40.95948448 229.4090874 -44.07910156 229.41650391 C-45.45866783 229.3918959 -45.45866783 229.3918959 -46.86610413 229.36679077 C-52.96789687 229.42614345 -55.83748124 230.44973423 -60 235 Z M-39 274 C-40.27875 283.301875 -41.5575 292.60375 -42.875 302.1875 C-43.27444824 305.07653076 -43.67389648 307.96556152 -44.08544922 310.94213867 C-44.40886634 313.30903591 -44.73196533 315.67597665 -45.0546875 318.04296875 C-45.29844116 319.79268982 -45.29844116 319.79268982 -45.54711914 321.57775879 C-47.0128211 332.38048465 -47.96339096 343.11560505 -49 354 C-18.97 354 11.06 354 42 354 C40.535625 341.356875 39.07125 328.71375 37.5625 315.6875 C37.10174072 311.69487061 36.64098145 307.70224121 36.16625977 303.58862305 C35.75023623 300.01073061 35.75023623 300.01073061 35.33335876 296.43293762 C35.14805626 294.83903951 34.96402328 293.24499349 34.7809906 291.65083313 C34.50354186 289.23651013 34.22207144 286.82268675 33.93969727 284.40893555 C33.85898011 283.69836596 33.77826296 282.98779638 33.69509983 282.25569439 C33.3518299 279.35296964 32.9279045 276.7837135 32 274 C8.57 274 -14.86 274 -39 274 Z M-211 410 C-213.41048796 427.83237172 -213.41048796 427.83237172 -207.125 443.875 C-204.11173475 447.26689544 -201.58308275 448.8662215 -196.99248385 449.25415033 C-195.21050597 449.25707671 -195.21050597 449.25707671 -193.39252853 449.26006222 C-192.72677907 449.26386789 -192.06102961 449.26767356 -191.37510592 449.27159455 C-189.13433076 449.28193748 -186.89380765 449.27799926 -184.65301514 449.27415466 C-183.03421539 449.27860561 -181.41541782 449.28391918 -179.79662347 449.29002339 C-175.34027054 449.3042311 -170.88398726 449.30586615 -166.42761493 449.30542648 C-161.6244733 449.30707225 -156.82136056 449.32013428 -152.01823425 449.33161926 C-141.5120711 449.3544871 -131.00592813 449.36239179 -120.49974346 449.36744571 C-113.94131608 449.37070066 -107.38289458 449.37722191 -100.82447052 449.3844471 C-82.67080245 449.40401535 -64.51713984 449.42041824 -46.36346054 449.42332363 C-45.2013423 449.4235112 -44.03922406 449.42369877 -42.84189011 449.42389202 C-40.48592615 449.42425828 -38.12996219 449.42462198 -35.77399823 449.42498314 C-34.60447237 449.42516595 -33.43494651 449.42534876 -32.22998047 449.42553711 C-31.05902935 449.42571766 -29.88807824 449.42589821 -28.68164375 449.42608423 C-9.70476324 449.42962644 9.27200384 449.45665081 28.24884501 449.494035 C47.7259101 449.53209798 67.20291888 449.55148096 86.680022 449.55178314 C97.61821234 449.55236817 108.55626736 449.56088909 119.49442291 449.58978081 C128.80792558 449.61426781 138.12124359 449.6215957 147.43476972 449.60653328 C152.18719908 449.59935341 156.93926361 449.60026818 161.6916523 449.62294388 C166.04309008 449.64350765 170.39388196 449.64095807 174.74531254 449.62006903 C176.318681 449.61656913 177.89209581 449.6215054 179.46540347 449.63577347 C190.14011998 449.80952439 190.14011998 449.80952439 199.61819053 445.36510712 C203.56812993 441.46291184 204.97366958 436.31000131 205.0168457 430.88232422 C204.94642041 428.39735377 204.82549994 425.91960853 204.6875 423.4375 C204.63432617 422.16229492 204.63432617 422.16229492 204.58007812 420.86132812 C204.53689453 420.03955078 204.49371094 419.21777344 204.44921875 418.37109375 C204.41143311 417.62786865 204.37364746 416.88464355 204.3347168 416.11889648 C204.04359168 413.58355639 204.04359168 413.58355639 202 410 C65.71 410 -70.58 410 -211 410 Z M-60 463 C-60.48187283 464.89753142 -60.96169729 466.79558308 -61.44067383 468.69384766 C-61.70809891 469.75076813 -61.97552399 470.8076886 -62.25105286 471.89663696 C-63.24886699 476.03121379 -64.01018892 480.177892 -64.6875 484.375 C-64.88182617 485.50615234 -64.88182617 485.50615234 -65.08007812 486.66015625 C-65.20189453 487.39878906 -65.32371094 488.13742187 -65.44921875 488.8984375 C-65.60910278 489.86789307 -65.60910278 489.86789307 -65.7722168 490.85693359 C-66.05921767 493.5571412 -66 496.28458279 -66 499 C-24.42 499 17.16 499 60 499 C58.30989391 480.06686154 58.30989391 480.06686154 52 463 C49.93368017 462.55400361 49.93368017 462.55400361 47.50753784 462.63923645 C46.56240326 462.63511246 45.61726868 462.63098846 44.64349365 462.6267395 C43.60340149 462.63752533 42.56330933 462.64831116 41.49169922 462.65942383 C40.39900726 462.65898575 39.30631531 462.65854767 38.18051147 462.65809631 C34.55505743 462.66019269 30.93006114 462.68356416 27.3046875 462.70703125 C24.79648084 462.71262417 22.28827092 462.7168957 19.78005981 462.71989441 C13.84433569 462.73019329 7.90875937 462.75385709 1.97311127 462.78394288 C-5.44628187 462.82073472 -12.86569529 462.83687105 -20.28515625 462.85351562 C-33.52352156 462.88572239 -46.76175034 462.93637399 -60 463 Z " fill="#FCD66A" transform="translate(517,206)"/>
<path d="M0 0 C1.1091275 -0.00412399 2.218255 -0.00824799 3.36099243 -0.01249695 C4.5679628 -0.00171112 5.77493317 0.00907471 7.01847839 0.02018738 C8.29692627 0.0197493 9.57537415 0.01931122 10.89256287 0.01885986 C14.39021629 0.01800036 17.88756005 0.03561854 21.38514161 0.05658174 C25.04331527 0.07535617 28.70149629 0.07709958 32.35971069 0.08065796 C39.28343413 0.08997619 46.20701518 0.1145869 53.13067597 0.14470643 C61.01453958 0.1782574 68.89841005 0.19473819 76.78232729 0.20979273 C92.99678844 0.24113671 109.21110645 0.29389281 125.42546082 0.36076355 C126.37989699 2.69907529 127.32968686 5.03910749 128.27702332 7.3802948 C128.54329529 8.03131165 128.80956726 8.68232849 129.08390808 9.35307312 C132.15334244 16.96085185 135.42546082 25.1031061 135.42546082 33.36076355 C134.80001877 33.35854294 134.17457672 33.35632233 133.53018188 33.35403442 C126.89266036 33.33153817 120.25515002 33.31667687 113.61759949 33.30583191 C111.15568094 33.30086933 108.69376522 33.29409712 106.2318573 33.2853241 C97.96226194 33.25663952 89.69472937 33.28270875 81.42546082 33.36076355 C80.29972656 33.36763184 79.17399231 33.37450012 78.0141449 33.38157654 C74.82841118 33.41077876 71.64551586 33.47530754 68.46061707 33.5521698 C67.5152861 33.55764328 66.56995514 33.56311676 65.59597778 33.5687561 C64.2838607 33.61190697 64.2838607 33.61190697 62.94523621 33.65592957 C62.18884354 33.67124222 61.43245087 33.68655487 60.65313721 33.70233154 C57.17307548 34.73092979 55.63900989 36.53698864 53.42546082 39.36076355 C52.66953235 42.58755289 52.66953235 42.58755289 52.76603699 46.1681366 C52.75556178 46.83759339 52.74508657 47.50705019 52.73429394 48.19679356 C52.70546214 50.42248862 52.71189502 52.64663206 52.71842957 54.8724823 C52.70512579 56.45719785 52.68966639 58.04189657 52.67219543 59.62657166 C52.63154542 63.88504657 52.6215672 68.14308262 52.61796951 72.40172958 C52.60961529 76.81599688 52.57488432 81.23005923 52.54338074 85.64421082 C52.49036407 93.66487998 52.4630172 101.68540501 52.44634914 109.70622349 C52.43196625 116.07547955 52.39736716 122.44439721 52.35225582 128.81350231 C52.30917943 134.89756083 52.27744888 140.98158153 52.25325012 147.06575012 C52.24310755 149.54181422 52.2307398 152.01787027 52.21607971 154.49391174 C52.19854934 157.90663713 52.19457316 161.31909305 52.19499207 164.7318573 C52.18431198 166.20933441 52.18431198 166.20933441 52.17341614 167.71665955 C52.19066594 172.93994627 52.30976468 177.53528922 54.42546082 182.36076355 C58.48559546 184.59732007 62.15363379 184.60510447 66.72442627 184.59277344 C67.81315217 184.59395092 67.81315217 184.59395092 68.92387253 184.5951522 C71.35298285 184.595331 73.781795 184.58117157 76.21086121 184.56706238 C77.9553942 184.56424119 79.69992882 184.56229979 81.44446373 184.56117058 C86.2007223 184.55552763 90.95686126 184.53736582 95.71307635 184.51695228 C100.77100263 184.49728193 105.82894869 184.48875396 110.88690186 184.47888184 C119.41843901 184.4607073 127.94992835 184.43524379 136.48143005 184.4047699 C147.93191861 184.3639424 159.38240218 184.33704551 170.83293796 184.31376433 C189.83601478 184.27452477 208.83889461 184.21077871 227.84181786 184.12501335 C239.06897551 184.07461937 250.29608061 184.03457609 261.5233168 184.00646943 C269.62877646 183.98533268 277.73414384 183.95295225 285.83952767 183.91206199 C290.61086316 183.8883013 295.38209305 183.86945317 300.15348625 183.86314964 C304.55828144 183.85714764 308.96279006 183.83732983 313.36747932 183.80648804 C314.97722009 183.79767462 316.58699816 183.79399203 318.19676208 183.79575539 C320.38514181 183.79739766 322.57263621 183.78080951 324.76089478 183.75949097 C325.98336631 183.754882 327.20583784 183.75027304 328.46535397 183.74552441 C331.39981519 183.60270462 331.39981519 183.60270462 333.27949619 182.02334309 C335.56104002 178.7132513 335.55435016 175.72022837 335.56590271 171.83259583 C335.57161285 170.68295853 335.577323 169.53332123 335.58320618 168.34884644 C335.58432404 167.08643631 335.58544189 165.82402618 335.58659363 164.52336121 C335.59122262 163.18129337 335.59624739 161.83922685 335.60163879 160.49716187 C335.61475616 156.85042638 335.62120633 153.2037093 335.62564945 149.55695391 C335.62858096 147.27859658 335.6326859 145.00024429 335.63715363 142.7218895 C335.65082618 135.59331047 335.66049429 128.46474294 335.66435552 121.33615172 C335.66883725 113.10728577 335.68639139 104.87858584 335.71535611 96.64977038 C335.73696928 90.28874675 335.74705958 83.92776984 335.74839664 77.56670988 C335.74944484 73.76759482 335.75535584 69.96863588 335.77321625 66.16955948 C335.78969096 62.59576313 335.79185553 59.02224036 335.78307724 55.44841957 C335.78193938 53.51350543 335.79566102 51.57860039 335.80982971 49.64373779 C335.80426056 48.48846085 335.79869141 47.3331839 335.79295349 46.14289856 C335.79515333 44.64022902 335.79515333 44.64022902 335.79739761 43.10720253 C335.35616115 39.84904407 334.40137249 37.97363773 332.42546082 35.36076355 C329.66404028 34.44029004 327.75281046 34.17521791 324.88444519 34.04655457 C323.95837463 34.0048967 323.03230408 33.96323883 322.07817078 33.9203186 C321.06871399 33.8813295 320.0592572 33.84234039 319.01921082 33.8021698 C317.96044739 33.75991776 316.90168396 33.71766571 315.81083679 33.6741333 C302.85062461 33.20475778 289.89208487 33.25189168 276.92546082 33.29826355 C274.43327423 33.30329729 271.94108664 33.30785682 269.44889832 33.31193542 C263.44106328 33.32277262 257.43326703 33.33935703 251.42546082 33.36076355 C251.88589163 31.46427354 252.3500925 29.56869861 252.81584167 27.67350769 C253.07393112 26.61781082 253.33202057 25.56211395 253.59793091 24.47442627 C254.75613369 20.11657431 256.3058859 15.97632059 257.98796082 11.79826355 C258.29153503 11.01902527 258.59510925 10.23978699 258.90788269 9.43693542 C260.21855103 6.1217155 261.43391836 3.34807724 263.42546082 0.36076355 C265.70067215 -0.0223465 265.70067215 -0.0223465 268.59886169 -0.03364563 C270.24336052 -0.05067032 270.24336052 -0.05067032 271.92108154 -0.06803894 C273.12941147 -0.06510834 274.33774139 -0.06217773 275.58268738 -0.05915833 C276.85105942 -0.06762787 278.11943146 -0.07609741 279.42623901 -0.08482361 C282.91200768 -0.1070959 286.39754034 -0.10996725 289.8833704 -0.1080761 C292.79324601 -0.10795659 295.70307128 -0.11651328 298.61293292 -0.12485361 C305.48065198 -0.14411057 312.34824949 -0.14696421 319.21598816 -0.14021301 C326.29727188 -0.13357965 333.37803371 -0.15640232 340.45921159 -0.19352674 C346.53915606 -0.22424373 352.61893289 -0.23558136 358.69895339 -0.23168993 C362.32997696 -0.22962337 365.96059507 -0.23508548 369.5915451 -0.25958252 C373.64493175 -0.28602353 377.69722165 -0.27210677 381.75065613 -0.25447083 C382.95088913 -0.26773407 384.15112213 -0.28099731 385.38772583 -0.29466248 C394.4587751 -0.20286535 394.4587751 -0.20286535 398.09263611 2.6492157 C406.9148082 12.90362603 403.57153112 32.11175116 403.55827332 44.91545105 C403.55933309 47.14990252 403.56071936 49.38435385 403.56240845 51.61880493 C403.56520253 57.59077584 403.56083998 63.56271986 403.55423355 69.53468704 C403.55045848 73.23805525 403.54839452 76.94142092 403.54676819 80.64479065 C403.53027508 112.46924787 403.41246845 144.29147352 403.01929474 176.11367035 C402.9879345 178.67541284 402.95820516 181.23717052 402.92869568 183.79893494 C402.88231178 187.75870592 402.83014588 191.71835553 402.77264595 195.67798042 C402.75235074 197.10955312 402.73355205 198.54114792 402.71635246 199.97276115 C402.69262662 201.89553612 402.66192901 203.81822142 402.63078308 205.7408905 C402.60746666 207.34502556 402.60746666 207.34502556 402.5836792 208.98156738 C402.42546082 211.36076355 402.42546082 211.36076355 401.42546082 212.36076355 C399.22680068 212.45975646 397.02488503 212.48632105 394.8239975 212.48660469 C393.77170351 212.48878485 393.77170351 212.48878485 392.69815105 212.49100906 C390.3177231 212.49469506 387.93735815 212.4911707 385.55693054 212.48774719 C383.84498769 212.48889799 382.13304508 212.49048523 380.421103 212.49247444 C375.69363319 212.4966735 370.96618341 212.49457448 366.2387135 212.49148822 C361.14936511 212.48923667 356.0600203 212.4927125 350.97067261 212.49546814 C340.99148522 212.49992747 331.01230534 212.49894865 321.03311765 212.4960555 C312.92674089 212.4938021 304.82036624 212.49348867 296.71398926 212.49457932 C294.98696321 212.49480916 294.98696321 212.49480916 293.22504774 212.49504366 C290.8865 212.49536337 288.54795226 212.49568758 286.20940453 212.49601625 C264.2527374 212.49887152 242.29607443 212.49558328 220.33940798 212.49021588 C201.47730241 212.4857478 182.61520299 212.48652372 163.75309753 212.49113464 C141.87791578 212.49647958 120.00273769 212.49859682 98.12755537 212.49552238 C95.79734771 212.49520381 93.46714004 212.49488944 91.13693237 212.49457932 C89.41692728 212.4943479 89.41692728 212.4943479 87.66217461 212.49411181 C79.56042672 212.49324641 71.45868113 212.49471002 63.35693359 212.49705887 C53.49094798 212.49985617 43.62497033 212.49912008 33.75898564 212.49377812 C28.7199873 212.49114016 23.68100227 212.49013763 18.64200401 212.49342728 C14.03689646 212.49638831 9.43181464 212.49480068 4.82670945 212.48944972 C3.15311241 212.48832471 1.47951324 212.48891857 -0.19408244 212.49132551 C-2.45377866 212.49432823 -4.71338453 212.49128636 -6.97307587 212.48660469 C-8.23282557 212.48644234 -9.49257527 212.48627999 -10.79049921 212.48611271 C-13.57453918 212.36076355 -13.57453918 212.36076355 -14.57453918 211.36076355 C-14.68118045 208.79909324 -14.72232389 206.26406065 -14.72171021 203.7015686 C-14.72538689 202.88964823 -14.72906358 202.07772786 -14.73285168 201.24120384 C-14.74393403 198.49906841 -14.74774008 195.75697081 -14.75154114 193.01481628 C-14.75780253 191.05722939 -14.76444904 189.0996437 -14.77145386 187.14205933 C-14.78889785 181.80704494 -14.79942559 176.47203953 -14.80765939 171.13700366 C-14.812804 167.80499855 -14.81888008 164.47299625 -14.82517052 161.14099312 C-14.84423496 150.71961999 -14.85846152 140.29825399 -14.86678249 129.87686676 C-14.87655029 117.84117578 -14.90285272 105.80566894 -14.94328338 93.77004284 C-14.97344315 84.4731577 -14.98825137 75.17632532 -14.9915635 65.87939221 C-14.99391482 60.32458629 -15.00288551 54.76997681 -15.02802467 49.21522331 C-15.05130679 43.98592654 -15.05553794 38.75695548 -15.04526329 33.52762032 C-15.0447678 31.61041302 -15.05109212 29.69318971 -15.06481934 27.77603149 C-15.08254451 25.15324684 -15.0754292 22.53163015 -15.06228638 19.90884399 C-15.07325562 19.15463919 -15.08422487 18.40043438 -15.09552652 17.62337488 C-15.02971651 12.16285695 -13.74556544 7.85729802 -10.57453918 3.36076355 C-7.0924293 0.49362037 -4.44818983 -0.01279441 0 0 Z " fill="#453D2C" transform="translate(319.5745391845703,389.6392364501953)"/>
<path d="M0 0 C0.84954254 -0.00570007 1.69908508 -0.01140015 2.57437134 -0.01727295 C4.37150835 -0.02671605 6.16866263 -0.03325419 7.96582031 -0.03710938 C10.70929287 -0.04681391 13.45201577 -0.07784285 16.1953125 -0.109375 C17.94270389 -0.11590551 19.69010063 -0.12115579 21.4375 -0.125 C22.2553598 -0.1373468 23.0732196 -0.1496936 23.91586304 -0.16241455 C28.55225631 -0.14436162 31.59951373 0.17845097 35.3515625 3.203125 C37.48742928 6.40692517 37.58288425 7.22252467 37.4765625 10.890625 C37.45851563 11.69886719 37.44046875 12.50710937 37.421875 13.33984375 C37.39867187 13.95472656 37.37546875 14.56960937 37.3515625 15.203125 C38.35525879 15.19788818 39.35895508 15.19265137 40.39306641 15.18725586 C70.71644419 15.04649305 101.0308779 15.33578206 131.3515625 15.703125 C132.3388459 15.71508282 133.3261293 15.72704063 134.34333038 15.73936081 C146.67946835 15.88921294 159.01554164 16.04393403 171.3515625 16.203125 C171.39837158 15.58824219 171.44518066 14.97335938 171.4934082 14.33984375 C171.56648193 13.53160156 171.63955566 12.72335938 171.71484375 11.890625 C171.78227783 11.09011719 171.84971191 10.28960937 171.91918945 9.46484375 C172.61733881 5.81286429 174.39328703 4.30678756 177.3515625 2.203125 C183.48094709 0.86777957 189.60767571 0.98199846 195.8515625 0.953125 C196.96660156 0.9325 198.08164062 0.911875 199.23046875 0.890625 C209.99836194 0.8392882 209.99836194 0.8392882 214.3515625 4.203125 C217.10563654 8.72141139 217.73560559 12.13885873 217.75 17.39453125 C217.75287018 18.06226059 217.75574036 18.72998993 217.75869751 19.41795349 C217.7607271 20.82055517 217.75527496 22.22318587 217.74267578 23.62573242 C217.72657847 25.76350479 217.74257284 27.89939438 217.76171875 30.03710938 C217.75973661 31.40625414 217.75589355 32.77539774 217.75 34.14453125 C217.74661621 35.37888916 217.74323242 36.61324707 217.73974609 37.88500977 C217.31015772 41.55704476 216.73858857 43.38550185 214.3515625 46.203125 C210.15918448 48.15807032 206.40203884 48.45942893 201.81640625 48.46875 C200.59501953 48.47132813 199.37363281 48.47390625 198.11523438 48.4765625 C196.85259766 48.46882813 195.58996094 48.46109375 194.2890625 48.453125 C193.02255859 48.46085937 191.75605469 48.46859375 190.45117188 48.4765625 C189.23107422 48.47398437 188.01097656 48.47140625 186.75390625 48.46875 C185.09089478 48.46536621 185.09089478 48.46536621 183.39428711 48.46191406 C180.2387613 48.19353106 178.1345116 47.70376102 175.3515625 46.203125 C172.3515625 42.203125 172.3515625 42.203125 172.3515625 30.203125 C146.6115625 30.533125 120.8715625 30.863125 94.3515625 31.203125 C98.3115625 32.853125 102.2715625 34.503125 106.3515625 36.203125 C109.03457737 37.53209498 111.63065893 38.85565724 114.2265625 40.328125 C114.89727783 40.70791504 115.56799316 41.08770508 116.2590332 41.47900391 C122.87435681 45.33554046 128.80517043 49.89826604 134.67236328 54.80029297 C136.33468621 56.18902626 138.01154903 57.55834101 139.69140625 58.92578125 C153.14045032 69.96844759 164.2145487 82.04509572 174.3515625 96.203125 C174.77566406 96.79319336 175.19976563 97.38326172 175.63671875 97.99121094 C188.1347121 115.65545401 199.32565832 138.46842455 201.3515625 160.203125 C202.01542969 160.21730469 202.67929687 160.23148438 203.36328125 160.24609375 C204.24628906 160.29378906 205.12929688 160.34148437 206.0390625 160.390625 C206.90917969 160.42542969 207.77929688 160.46023438 208.67578125 160.49609375 C212.47438099 161.49981135 213.90171312 163.15241199 216.3515625 166.203125 C216.839694 169.06582269 217.03268813 171.31993945 216.98046875 174.171875 C216.98288071 174.92980347 216.98529266 175.68773193 216.98777771 176.46862793 C216.98680146 178.06556448 216.97346059 179.66253579 216.94848633 181.25927734 C216.91416057 183.69616265 216.9278386 186.12942109 216.94726562 188.56640625 C216.94036674 190.12241118 216.93069395 191.67840681 216.91796875 193.234375 C216.92292862 193.95846558 216.92788849 194.68255615 216.93299866 195.42858887 C216.82063804 200.28313935 215.80200042 202.79421005 212.3515625 206.203125 C207.99009559 208.38385846 202.13192527 207.43023471 197.28564453 207.44335938 C195.1236263 207.45302635 192.96257474 207.48402994 190.80078125 207.515625 C189.41667229 207.5221593 188.03255655 207.52740809 186.6484375 207.53125 C185.39385742 207.5405957 184.13927734 207.54994141 182.84667969 207.55957031 C178.97372974 207.16459218 176.61108949 206.31531757 173.3515625 204.203125 C169.67861921 199.50003848 171.01891494 192.21172476 171.03588867 186.50415039 C171.03904728 184.27635715 171.0155791 182.04989472 170.99023438 179.82226562 C170.98796096 178.39843917 170.98725808 176.97460916 170.98828125 175.55078125 C170.98380981 173.61730835 170.98380981 173.61730835 170.97924805 171.64477539 C171.48761994 166.94541894 172.94201485 164.33859394 176.6015625 161.390625 C179.99205724 159.92654773 182.69228533 160.1215214 186.3515625 160.203125 C183.45395435 147.91833467 179.9288752 136.53710383 174.3515625 125.203125 C174.04347656 124.56922852 173.73539063 123.93533203 173.41796875 123.28222656 C166.15438785 108.50641521 156.76936703 96.00634066 145.3515625 84.203125 C144.46597656 83.26597656 143.58039063 82.32882813 142.66796875 81.36328125 C136.08129853 74.54717694 129.02890179 68.71238715 121.3515625 63.203125 C120.49353027 62.57857422 120.49353027 62.57857422 119.61816406 61.94140625 C95.62323074 44.62135444 66.64752218 34.4021091 37.3515625 31.203125 C37.38636719 31.93917969 37.42117188 32.67523438 37.45703125 33.43359375 C37.67582043 41.32042285 37.67582043 41.32042285 36.2265625 45.265625 C32.36265017 49.25833441 27.27760736 49.44193893 22.0063324 49.53231812 C21.22178177 49.53454376 20.43723114 49.53676941 19.62890625 49.5390625 C18.39425377 49.5490477 18.39425377 49.5490477 17.13465881 49.55923462 C15.40253929 49.56931744 13.67038126 49.574053 11.93823242 49.57373047 C9.29345976 49.57811771 6.65033888 49.61451986 4.00585938 49.65234375 C2.31771401 49.65821013 0.62956076 49.66218072 -1.05859375 49.6640625 C-2.23845604 49.68561905 -2.23845604 49.68561905 -3.44215393 49.70761108 C-7.22208034 49.6762245 -9.40802234 49.35700807 -12.62280273 47.29931641 C-15.81773418 43.99309954 -15.76322734 42.07505122 -15.7109375 37.578125 C-15.70191406 36.57523438 -15.69289063 35.57234375 -15.68359375 34.5390625 C-15.66619141 33.38277344 -15.66619141 33.38277344 -15.6484375 32.203125 C-31.76992021 34.23196953 -47.34148082 36.61998892 -62.6484375 42.203125 C-63.68436035 42.57945068 -63.68436035 42.57945068 -64.74121094 42.96337891 C-90.10478451 52.4762484 -111.45202368 70.55757571 -129.6484375 90.203125 C-130.13006348 90.72245605 -130.61168945 91.24178711 -131.10791016 91.77685547 C-147.46342327 109.92458657 -158.15022338 136.34117012 -162.6484375 160.203125 C-161.4315625 160.265 -160.2146875 160.326875 -158.9609375 160.390625 C-154.47460286 160.93153059 -152.50079009 162.65929299 -149.6484375 166.203125 C-147.41175109 170.67649781 -148.4212109 176.7752053 -148.40820312 181.7512207 C-148.39851939 183.99663645 -148.36750793 186.24112812 -148.3359375 188.48632812 C-148.32940498 189.91926541 -148.32415548 191.35220923 -148.3203125 192.78515625 C-148.30629395 194.73772339 -148.30629395 194.73772339 -148.29199219 196.72973633 C-148.67468402 200.45888471 -149.32020467 202.29349129 -151.6484375 205.203125 C-156.40768335 208.71653316 -163.20112197 207.53625671 -168.86523438 207.51879883 C-171.00963479 207.5156453 -173.1526456 207.53909074 -175.296875 207.56445312 C-176.67187327 207.56672712 -178.04687523 207.56742915 -179.421875 207.56640625 C-180.66372559 207.56938721 -181.90557617 207.57236816 -183.18505859 207.57543945 C-187.00780199 207.16449319 -189.39649499 206.22823879 -192.6484375 204.203125 C-195.06770705 200.57422067 -194.9712599 197.84722715 -194.984375 193.6484375 C-194.9910318 192.90987518 -194.9976886 192.17131287 -195.00454712 191.41036987 C-195.01466562 189.84863777 -195.01936439 188.2868625 -195.01904297 186.72509766 C-195.0234096 184.34334469 -195.05971508 181.96345554 -195.09765625 179.58203125 C-195.10352608 178.06250632 -195.10749436 176.54297261 -195.109375 175.0234375 C-195.12374603 174.31494659 -195.13811707 173.60645569 -195.15292358 172.87649536 C-195.12039228 169.33090313 -194.72601353 167.32716747 -192.83056641 164.29638672 C-189.14577355 160.76165703 -185.18792381 160.25910632 -180.2109375 160.078125 C-179.3653125 160.119375 -178.5196875 160.160625 -177.6484375 160.203125 C-177.5453125 159.08421875 -177.4421875 157.9653125 -177.3359375 156.8125 C-176.70383022 151.81270698 -175.264052 147.21356962 -173.6484375 142.453125 C-173.34156006 141.54353027 -173.03468262 140.63393555 -172.71850586 139.69677734 C-169.32659824 129.90544253 -165.16980204 120.51945256 -160.6484375 111.203125 C-160.31199219 110.50429199 -159.97554688 109.80545898 -159.62890625 109.08544922 C-142.12126009 73.17210532 -109.57700412 50.20312231 -75.6484375 31.203125 C-99.7384375 30.873125 -123.8284375 30.543125 -148.6484375 30.203125 C-148.9784375 33.833125 -149.3084375 37.463125 -149.6484375 41.203125 C-151.6484375 45.203125 -151.6484375 45.203125 -154.6484375 47.203125 C-160.16024025 48.64524636 -165.74092089 48.38719204 -171.3984375 48.390625 C-172.44515625 48.40287109 -173.491875 48.41511719 -174.5703125 48.42773438 C-190.22379632 48.45708466 -190.22379632 48.45708466 -194.36865234 44.60400391 C-196.1351416 41.29006737 -196.07833377 38.215259 -196.046875 34.55078125 C-196.04974518 33.81363388 -196.05261536 33.07648651 -196.05557251 32.31700134 C-196.05760976 30.76121246 -196.05210356 29.20539777 -196.03955078 27.6496582 C-196.02351383 25.27691904 -196.03939766 22.90588898 -196.05859375 20.53320312 C-196.05661081 19.01822543 -196.05276608 17.50324879 -196.046875 15.98828125 C-196.05294769 15.2829274 -196.05902039 14.57757355 -196.0652771 13.85084534 C-196.0032578 9.47366303 -195.41641093 6.63429953 -192.6484375 3.203125 C-189.38379965 0.8470818 -186.32476868 0.94553696 -182.37890625 0.9375 C-181.16009766 0.93492187 -179.94128906 0.93234375 -178.68554688 0.9296875 C-176.77999023 0.94128906 -176.77999023 0.94128906 -174.8359375 0.953125 C-173.57716797 0.94539062 -172.31839844 0.93765625 -171.02148438 0.9296875 C-156.33941229 0.96064601 -156.33941229 0.96064601 -151.7734375 4.765625 C-150.6484375 7.203125 -150.6484375 7.203125 -149.6484375 16.203125 C-105.7584375 15.873125 -61.8684375 15.543125 -16.6484375 15.203125 C-16.3184375 12.233125 -15.9884375 9.263125 -15.6484375 6.203125 C-11.58037592 -0.30577353 -7.12344409 0.03683351 0 0 Z M-2.6484375 14.203125 C-2.6484375 21.133125 -2.6484375 28.063125 -2.6484375 35.203125 C5.9315625 35.203125 14.5115625 35.203125 23.3515625 35.203125 C24.27344711 32.43747118 24.46941472 30.82028798 24.44921875 27.97265625 C24.44672119 27.24925049 24.44422363 26.52584473 24.44165039 25.78051758 C24.43254639 24.86810303 24.42344238 23.95568848 24.4140625 23.015625 C24.383125 18.6534375 24.383125 18.6534375 24.3515625 14.203125 C15.4415625 14.203125 6.5315625 14.203125 -2.6484375 14.203125 Z M-181.6484375 15.203125 C-181.6484375 21.473125 -181.6484375 27.743125 -181.6484375 34.203125 C-175.7084375 33.873125 -169.7684375 33.543125 -163.6484375 33.203125 C-163.6484375 27.263125 -163.6484375 21.323125 -163.6484375 15.203125 C-169.5884375 15.203125 -175.5284375 15.203125 -181.6484375 15.203125 Z M185.3515625 15.203125 C185.3515625 21.473125 185.3515625 27.743125 185.3515625 34.203125 C191.2915625 34.203125 197.2315625 34.203125 203.3515625 34.203125 C203.3515625 27.933125 203.3515625 21.663125 203.3515625 15.203125 C197.4115625 15.203125 191.4715625 15.203125 185.3515625 15.203125 Z M-181.6484375 174.203125 C-181.6484375 180.473125 -181.6484375 186.743125 -181.6484375 193.203125 C-175.3784375 193.203125 -169.1084375 193.203125 -162.6484375 193.203125 C-162.6484375 186.933125 -162.6484375 180.663125 -162.6484375 174.203125 C-168.9184375 174.203125 -175.1884375 174.203125 -181.6484375 174.203125 Z M185.3515625 174.203125 C185.3515625 180.473125 185.3515625 186.743125 185.3515625 193.203125 C191.2915625 193.203125 197.2315625 193.203125 203.3515625 193.203125 C203.3515625 186.933125 203.3515625 180.663125 203.3515625 174.203125 C197.4115625 174.203125 191.4715625 174.203125 185.3515625 174.203125 Z " fill="#FCD76A" transform="translate(502.6484375,140.796875)"/>
<path d="M0 0 C1.08081848 0.00007553 2.16163696 0.00015106 3.27520752 0.00022888 C4.43574646 0.00539017 5.5962854 0.01055145 6.79199219 0.01586914 C7.98491882 0.01728409 9.17784546 0.01869904 10.40692139 0.02015686 C14.21759548 0.02575501 18.02821085 0.03830721 21.83886719 0.05102539 C24.42219967 0.05604063 27.00553308 0.06060349 29.58886719 0.06469727 C35.92222056 0.07572384 42.25553968 0.09246016 48.58886719 0.11352539 C49.68681337 79.97013428 49.68681337 79.97013428 49.71386719 105.36352539 C49.71636475 106.18529266 49.7188623 107.00705994 49.72143555 107.85372925 C49.72715846 110.0914163 49.7259737 112.32896304 49.72167969 114.56665039 C49.72055176 115.75419922 49.71942383 116.94174805 49.71826172 118.1652832 C49.58886719 121.11352539 49.58886719 121.11352539 48.58886719 125.11352539 C26.14886719 125.11352539 3.70886719 125.11352539 -19.41113281 125.11352539 C-20.88083283 121.43927536 -21.68968876 119.25359854 -22.14135742 115.53637695 C-22.25173843 114.65566528 -22.36211945 113.77495361 -22.47584534 112.86755371 C-22.58726364 111.92263062 -22.69868195 110.97770752 -22.81347656 110.00415039 C-22.93589218 109.01217651 -23.0583078 108.02020264 -23.18443298 106.99816895 C-23.57904598 103.78738219 -23.96402698 100.57552484 -24.34863281 97.36352539 C-24.61582115 95.17107517 -24.88356229 92.97869225 -25.15185547 90.78637695 C-25.6758987 86.49484238 -26.19605924 82.20286813 -26.71240234 77.91040039 C-27.28964259 73.11243788 -27.87673786 68.31581585 -28.46972656 63.51977539 C-28.74221286 61.30106845 -29.01439042 59.08232356 -29.28613281 56.86352539 C-29.40593506 55.89189453 -29.5257373 54.92026367 -29.64916992 53.91918945 C-29.75366455 53.05003906 -29.85815918 52.18088867 -29.96582031 51.28540039 C-30.05331543 50.56449219 -30.14081055 49.84358398 -30.23095703 49.10083008 C-30.41124261 47.11231431 -30.41113281 45.11019709 -30.41113281 43.11352539 C-28.87392578 43.09225586 -28.87392578 43.09225586 -27.30566406 43.07055664 C-25.9449431 43.02363523 -24.58426741 42.97538795 -23.22363281 42.92602539 C-22.55009766 42.92022461 -21.8765625 42.91442383 -21.18261719 42.90844727 C-17.59124169 42.75077712 -15.60875248 42.26195526 -12.71972656 40.09204102 C-9.7991195 36.32391431 -9.68043644 33.33355041 -9.70410156 28.75024414 C-9.68898026 27.95826126 -9.67385895 27.16627838 -9.65827942 26.35029602 C-9.61546901 23.83358136 -9.60657149 21.31806757 -9.59863281 18.80102539 C-9.57548312 17.08940507 -9.55011679 15.3778132 -9.52246094 13.66625977 C-9.45967511 9.48190915 -9.42728782 5.29830535 -9.41113281 1.11352539 C-6.20781047 0.16339389 -3.33512151 -0.00779234 0 0 Z " fill="#463D2C" transform="translate(593.4111328125,435.886474609375)"/>
<path d="M0 0 C1.54221474 0.02997826 1.54221474 0.02997826 3.11558533 0.06056213 C4.27671341 0.08065842 5.43784149 0.1007547 6.63415527 0.12145996 C8.52943214 0.16201256 8.52943214 0.16201256 10.46299744 0.2033844 C11.74895309 0.22699539 13.03490875 0.25060638 14.35983276 0.27493286 C17.78435361 0.3378667 21.20872554 0.4069067 24.63310242 0.47718811 C28.12515969 0.54778785 31.61732284 0.61265476 35.10948181 0.67799377 C41.9657167 0.80712584 48.8218114 0.9427043 55.67784119 1.08229065 C55.65427551 2.63339539 55.65427551 2.63339539 55.63023376 4.21583557 C55.57580065 8.06422592 55.5414427 11.91258244 55.51304626 15.76124573 C55.49799004 17.42471546 55.47754055 19.0881457 55.45152283 20.7514801 C55.41499912 23.14700587 55.39808337 25.54200532 55.38487244 27.9377594 C55.36938858 28.67753525 55.35390472 29.4173111 55.33795166 30.17950439 C55.33649679 34.67617989 55.92183003 37.49791239 58.67784119 41.08229065 C61.98890028 43.47035539 65.43290052 43.46759421 69.42784119 43.70729065 C71.51117452 43.83229065 73.59450785 43.95729065 75.67784119 44.08229065 C75.04880204 56.76346892 73.0485301 69.27863406 71.24034119 81.83229065 C70.6139812 86.20170591 69.99053332 90.57152613 69.36924744 94.94166565 C69.21984711 95.98786072 69.07044678 97.03405579 68.91651917 98.11195374 C67.92264406 105.14070945 67.02960892 112.17470186 66.29541016 119.23554993 C65.78194522 123.97818662 65.78194522 123.97818662 64.67784119 125.08229065 C62.56102801 125.17650805 60.4410336 125.19971826 58.3221283 125.19581604 C57.65873947 125.19596207 56.99535065 125.19610809 56.31185913 125.19625854 C54.10960163 125.19555946 51.90742774 125.1877673 49.70518494 125.1799469 C48.18203782 125.1780827 46.65889011 125.17665881 45.13574219 125.17565918 C41.11946468 125.17183411 37.10322311 125.16200393 33.08695984 125.1509552 C28.99160753 125.14074084 24.89624943 125.13616151 20.80088806 125.13111877 C12.75985591 125.12038165 4.71885301 125.10330537 -3.32215881 125.08229065 C-3.34548791 108.93197145 -3.36313804 92.78165769 -3.37397099 76.63132572 C-3.37913392 69.13296 -3.38617657 61.63460474 -3.39759827 54.13624573 C-3.40754518 47.60298561 -3.41401226 41.06973306 -3.41624731 34.53646559 C-3.4175544 31.07507258 -3.42064018 27.61370123 -3.42788887 24.15231514 C-3.43590288 20.29441538 -3.43614995 16.43653708 -3.4356842 12.57862854 C-3.43927948 11.42273224 -3.44287476 10.26683594 -3.44657898 9.07591248 C-3.44520432 8.03118271 -3.44382965 6.98645294 -3.44241333 5.9100647 C-3.44333512 4.99656785 -3.44425692 4.083071 -3.44520664 3.14189243 C-3.26861585 0.18607673 -2.96712598 0.10514644 0 0 Z " fill="#453D2C" transform="translate(388.32215881347656,435.91770935058594)"/>
<path d="M0 0 C1.21839821 -0.00074776 1.21839821 -0.00074776 2.46141052 -0.00151062 C4.17701669 0.00082842 5.89262639 0.01054697 7.6081543 0.02709961 C10.2397311 0.05072413 12.87029701 0.04765563 15.50195312 0.04101562 C17.16797481 0.04659135 18.83399222 0.05370057 20.5 0.0625 C21.2895961 0.06158859 22.0791922 0.06067719 22.89271545 0.05973816 C28.45255583 0.13224333 28.45255583 0.13224333 30.68359375 2.36328125 C30.984375 4.45703125 30.984375 4.45703125 30.99609375 6.86328125 C31.01285156 7.65734375 31.02960937 8.45140625 31.046875 9.26953125 C30.92699219 9.96046875 30.80710937 10.65140625 30.68359375 11.36328125 C26.93973817 13.85918497 23.95997374 13.68655509 19.62109375 13.69921875 C18.833396 13.70587555 18.04569824 13.71253235 17.23413086 13.71939087 C15.56984796 13.72950928 13.90552456 13.73420814 12.24121094 13.73388672 C9.69268268 13.73826563 7.14587871 13.77460639 4.59765625 13.8125 C2.98047468 13.81836719 1.36328487 13.82233724 -0.25390625 13.82421875 C-1.01646729 13.83858978 -1.77902832 13.85296082 -2.56469727 13.86776733 C-7.82168882 13.82226096 -7.82168882 13.82226096 -10.296875 11.52587891 C-11.67553513 8.60150836 -11.72408138 6.55673645 -11.31640625 3.36328125 C-8.77680294 -0.83932671 -4.36830046 -0.05108225 0 0 Z " fill="#FDD86B" transform="translate(503.31640625,628.63671875)"/>
<path d="M0 0 C1.08081848 0.00007553 2.16163696 0.00015106 3.27520752 0.00022888 C4.43574646 0.00539017 5.5962854 0.01055145 6.79199219 0.01586914 C7.98491882 0.01728409 9.17784546 0.01869904 10.40692139 0.02015686 C14.21759548 0.02575501 18.02821085 0.03830721 21.83886719 0.05102539 C24.42219967 0.05604063 27.00553308 0.06060349 29.58886719 0.06469727 C35.92222056 0.07572384 42.25553968 0.09246016 48.58886719 0.11352539 C48.58886719 0.44352539 48.58886719 0.77352539 48.58886719 1.11352539 C47.5110498 1.13858154 46.43323242 1.1636377 45.32275391 1.18945312 C41.25593721 1.28488942 37.18923848 1.3847553 33.12255859 1.48583984 C31.37519118 1.52868163 29.62779535 1.57038256 27.88037109 1.61083984 C22.88355755 1.72694481 17.88815745 1.86331285 12.89294434 2.0355835 C11.40132471 2.08604173 9.90953561 2.13180054 8.41760254 2.17193604 C6.47663092 2.22793115 4.53654213 2.31242641 2.59667969 2.39868164 C1.52305176 2.44001221 0.44942383 2.48134277 -0.65673828 2.52392578 C-4.15032855 3.271756 -5.35247996 4.20511142 -7.41113281 7.11352539 C-8.05028257 10.10040413 -8.05028257 10.10040413 -8.02050781 13.41040039 C-8.05273438 14.61567383 -8.08496094 15.82094727 -8.11816406 17.06274414 C-8.13234375 18.31700195 -8.14652344 19.57125977 -8.16113281 20.86352539 C-8.19078125 22.13325195 -8.22042969 23.40297852 -8.25097656 24.71118164 C-8.32167232 27.84536024 -8.37437293 30.97879495 -8.41113281 34.11352539 C-8.74113281 34.11352539 -9.07113281 34.11352539 -9.41113281 34.11352539 C-9.41113281 23.22352539 -9.41113281 12.33352539 -9.41113281 1.11352539 C-5.95479948 0.24944206 -3.50258467 -0.00818361 0 0 Z " fill="#897630" transform="translate(593.4111328125,435.886474609375)"/>
<path d="M0 0 C0.66 0 1.32 0 2 0 C2 4.62 2 9.24 2 14 C0 10 0 10 0 8 C-0.99 8.33 -1.98 8.66 -3 9 C-2.01 6.03 -1.02 3.06 0 0 Z " fill="#DCBC32" transform="translate(505,241)"/>
<path d="M0 0 C0.33 0 0.66 0 1 0 C1.04241723 2.33294775 1.04092937 4.66702567 1 7 C0 8 0 8 -1.94946289 8.11352539 C-2.7821167 8.10828857 -3.61477051 8.10305176 -4.47265625 8.09765625 C-5.37177734 8.09443359 -6.27089844 8.09121094 -7.19726562 8.08789062 C-8.14279297 8.07951172 -9.08832031 8.07113281 -10.0625 8.0625 C-11.01189453 8.05798828 -11.96128906 8.05347656 -12.93945312 8.04882812 C-15.29303065 8.0370011 -17.64648477 8.02052025 -20 8 C-20 7.67 -20 7.34 -20 7 C-14.06 6.67 -8.12 6.34 -2 6 C-1.34 4.02 -0.68 2.04 0 0 Z " fill="#716024" transform="translate(453,553)"/>
<path d="M0 0 C1.9453125 -0.29296875 1.9453125 -0.29296875 4.125 -0.1875 C5.40375 -0.125625 6.6825 -0.06375 8 0 C7.1646875 0.37125 7.1646875 0.37125 6.3125 0.75 C2.36682299 2.88279838 -0.92013493 5.75803677 -4 9 C-2.94124926 5.59687262 -1.99097846 2.98646769 0 0 Z " fill="#5B4D20" transform="translate(583,390)"/>
<path d="M0 0 C3.63 0 7.26 0 11 0 C11 0.33 11 0.66 11 1 C9.3603125 1.433125 9.3603125 1.433125 7.6875 1.875 C3.95986155 2.81893204 3.95986155 2.81893204 1 5 C0.67 3.35 0.34 1.7 0 0 Z " fill="#826F2B" transform="translate(563,479)"/>
<path d="M0 0 C0.33 0 0.66 0 1 0 C1.04241723 2.33294775 1.04092937 4.66702567 1 7 C0 8 0 8 -3.5625 8.0625 C-4.696875 8.041875 -5.83125 8.02125 -7 8 C-6.401875 7.79375 -5.80375 7.5875 -5.1875 7.375 C-2.18981233 5.49073918 -1.38638224 3.18867916 0 0 Z " fill="#5F501E" transform="translate(721,594)"/>
<path d="M0 0 C1.88391785 3.26545761 2.49287967 6.28111761 3 10 C1.68 9.67 0.36 9.34 -1 9 C-0.67 8.01 -0.34 7.02 0 6 C0.03920815 4.00038436 0.04443347 1.99950636 0 0 Z " fill="#635420" transform="translate(452,412)"/>
<path d="M0 0 C3.3 0.33 6.6 0.66 10 1 C7.03715981 2.48142009 5.08456354 3.28026851 2 4 C1.01 4.495 1.01 4.495 0 5 C0 3.35 0 1.7 0 0 Z " fill="#5C4E1F" transform="translate(386,436)"/>
<path d="M0 0 C0.66 1.32 1.32 2.64 2 4 C1.34 4 0.68 4 0 4 C0 2.68 0 1.36 0 0 Z " fill="#E2C01C" transform="translate(523,244)"/>
<path d="" fill="#E1BF1E" transform="translate(0,0)"/>
</svg>
