<svg width="64" height="64" viewBox="0 0 64 64" fill="none" xmlns="http://www.w3.org/2000/svg">
<rect width="64" height="64" fill="white"/>
<path d="M52.6274 11.3726C50.1046 8.84974 45.8954 8.84974 43.3726 11.3726L13.3726 41.3726C12.4896 42.2556 12 43.4477 12 44.6863V52C12 53.1046 12.8954 54 14 54H21.3137C22.5523 54 23.7444 53.5104 24.6274 52.6274L54.6274 22.6274C57.1503 20.1046 57.1503 15.8954 54.6274 13.3726ZM45.5 13.5C46.3284 12.6716 47.6716 12.6716 48.5 13.5C49.3284 14.3284 49.3284 15.6716 48.5 16.5L46.5 18.5L45.5 17.5L47.5 15.5C47.6716 15.3284 47.6716 15.0716 47.5 14.9C47.3284 14.7284 47.0716 14.7284 46.9 14.9L44.9 16.9L43.9 15.9L45.5 13.5ZM14 46.6863L44 16.6863L47.3137 20L17.3137 50H14V46.6863ZM16 52V50H18.3137L48.3137 20L50 21.6863L20 51.6863H16V52ZM52.6274 19.3726L50.6274 21.3726L42.6274 13.3726L44.6274 11.3726C46.1503 9.84974 48.8497 9.84974 50.3726 11.3726C51.8954 12.8954 51.8954 15.6046 50.3726 17.1274L52.6274 19.3726Z" fill="#222"/>
</svg>
