<svg width="28" height="28" viewBox="0 0 28 28" fill="none" xmlns="http://www.w3.org/2000/svg">
<path d="M6.595 2.084C6.71706 2.14724 6.81939 2.2428 6.89082 2.36026C6.96224 2.47771 7.00001 2.61254 7 2.75C7 3.92 7.403 4.598 7.867 5.269C7.911 5.333 7.957 5.39833 8.005 5.465C8.448 6.093 9 6.873 9 8C9 8.45963 8.90947 8.91475 8.73358 9.33939C8.55769 9.76403 8.29988 10.1499 7.97487 10.4749C7.64987 10.7999 7.26403 11.0577 6.83939 11.2336C6.41475 11.4095 5.95963 11.5 5.5 11.5C5.04037 11.5 4.58525 11.4095 4.16061 11.2336C3.73597 11.0577 3.35013 10.7999 3.02513 10.4749C2.70012 10.1499 2.44231 9.76403 2.26642 9.33939C2.09053 8.91475 2 8.45963 2 8C2 7.177 2.084 6.28 2.649 5.28C3.201 4.303 4.175 3.294 5.819 2.137C5.93114 2.05807 6.06278 2.01139 6.19959 2.00204C6.33641 1.9927 6.47317 2.02105 6.595 2.084ZM9.222 5.474C10.0918 4.90643 11.0941 4.57438 12.1307 4.51032C13.1674 4.44627 14.2029 4.6524 15.136 5.10856C16.0691 5.56473 16.8678 6.25529 17.4539 7.11269C18.0401 7.9701 18.3936 8.96498 18.48 10H15.751C14.7564 10 13.8026 10.3951 13.0993 11.0984C12.3961 11.8016 12.001 12.7554 12.001 13.75V16.48C11.3046 16.4219 10.6237 16.2425 9.989 15.95C9.973 16.439 9.939 16.973 9.889 17.533C10.5676 17.7841 11.279 17.9357 12.001 17.983V20.25C12.001 21.2446 12.3961 22.1984 13.0993 22.9017C13.8026 23.6049 14.7564 24 15.751 24H22.251C23.2456 24 24.1994 23.6049 24.9027 22.9017C25.6059 22.1984 26.001 21.2446 26.001 20.25V13.75C26.001 12.7554 25.6059 11.8016 24.9027 11.0984C24.1994 10.3951 23.2456 10 22.251 10H19.985C19.8978 8.69229 19.4695 7.43026 18.7427 6.33965C18.0158 5.24904 17.0159 4.36793 15.8425 3.78412C14.6691 3.2003 13.3632 2.93417 12.0549 3.01222C10.7466 3.09028 9.48165 3.50981 8.386 4.229C8.476 4.383 8.578 4.537 8.691 4.7C8.729 4.75667 8.77233 4.818 8.821 4.884C8.939 5.05 9.08 5.246 9.222 5.474ZM22.252 11.5C22.8487 11.5 23.421 11.7371 23.843 12.159C24.2649 12.581 24.502 13.1533 24.502 13.75V20.25C24.502 20.8467 24.2649 21.419 23.843 21.841C23.421 22.2629 22.8487 22.5 22.252 22.5H15.752C15.1553 22.5 14.583 22.2629 14.161 21.841C13.7391 21.419 13.502 20.8467 13.502 20.25V17.934C15.1309 17.7141 16.6426 16.9655 17.8048 15.8032C18.967 14.6408 19.7154 13.129 19.935 11.5H22.252ZM13.502 16.417V13.75C13.502 13.1533 13.7391 12.581 14.161 12.159C14.583 11.7371 15.1553 11.5 15.752 11.5H18.418C18.2098 12.7284 17.6246 13.8616 16.7436 14.7426C15.8626 15.6236 14.7304 16.2088 13.502 16.417ZM2 15.287C2 14.284 2.08 13.039 2.516 12.013C3.349 12.633 4.382 13 5.5 13C6.57604 13.0016 7.62365 12.6546 8.486 12.011C8.921 13.038 9 14.285 9 15.287C9 16.95 8.736 19.497 8.252 21.637C8.012 22.705 7.706 23.716 7.329 24.477C7.142 24.857 6.917 25.214 6.642 25.487C6.365 25.761 5.982 26 5.502 26C5.022 26 4.64 25.761 4.363 25.486C4.088 25.214 3.863 24.857 3.675 24.478C3.298 23.716 2.992 22.705 2.75 21.638C2.265 19.497 2 16.95 2 15.288" fill="#FFA629"/>
</svg>
